<?xml version="1.0"?>
<svg xmlns="http://www.w3.org/2000/svg" height="512px" viewBox="0 0 512.00054 512" width="512px"><g><path d="m509.746094 232.167969c-2.023438-1.984375-4.996094-2.65625-7.675782-1.738281l-33.671874 11.539062 41.441406-132.664062c2.238281-7.15625-1.765625-14.800782-8.925782-17.035157l-35.128906-10.976562c-7.152344-2.234375-14.796875 1.769531-17.035156 8.925781l-20.453125 65.476562c-4.59375-6.527343-13.542969-8.9375-20.195313-3.722656l-9.6875 7.59375 19.0625-91.832031c1.511719-7.28125-3.320312-14.578125-10.550781-16.078125l-36.035156-7.480469c-7.34375-1.523437-14.554687 3.210938-16.078125 10.550781l-23.996094 115.585938-9.628906-157.542969c-.457031-7.484375-6.914062-13.191406-14.402344-12.7460935l-36.734375 2.2460935c-3.625.222657-6.949219 1.84375-9.355469 4.5625-2.40625 2.722657-3.609374 6.21875-3.390624 9.84375l2.226562 36.421875c.59375 9.644532 15.566406 8.746094 14.972656-.914062l-2.140625-35.023438 33.9375-2.074218 12.644531 206.796874-32.507812 25.492188-9.730469-159.195312c-.589843-9.644532-15.566406-8.742188-14.972656.917968l5.917969 96.847656-13.640625-54.179687c-1.804688-7.160156-9.296875-11.679687-16.507813-9.867187l-6.507812 1.640624v-77.300781c0-7.5-6.101563-13.601562-13.601563-13.601562h-36.800781c-7.5 0-13.597656 6.101562-13.597656 13.601562v144.929688l-5.878906-7.5-17.558594-154.132813c-.847656-7.449218-7.605469-12.8125-15.046875-11.972656l-36.570313 4.164062c-7.332031.835938-12.8125 7.664063-11.972656 15.054688l9.886719 86.78125-6.90625 5.414062-15.960938-47.457031c-2.351562-6.996093-10.175781-10.929687-17.222656-8.554687l-34.882813 11.730468c-7 2.355469-10.925781 10.179688-8.554687 17.226563l28.960937 86.109375c3.101563 9.222656 17.296876 4.371094 14.21875-4.78125l-28.515624-84.78125 32.226562-10.839844 17.210938 51.167969-5.296876 4.152344c-5.898437 4.628906-6.933593 13.191406-2.308593 19.09375l27.019531 34.453125c.011719.050781.023438.097656.039062.144531l22.351563 66.453125c-13.332031-3.3125-26.570313-7.074219-39.679687-11.316406l-11.453126-34.058594c-3.085937-9.171875-17.300781-4.386719-14.21875 4.78125l7.828126 23.269531-44.789063-15.339843c-5.648437-1.9375-11.40625 3.636718-9.574219 9.375l85.128906 266.621093c.992188 3.109375 3.878907 5.21875 7.144532 5.21875h326.75c3.261718 0 6.152344-2.109375 7.144531-5.21875l85.128906-266.621093c.863281-2.699219.128907-5.65625-1.898437-7.636719zm-93.492188-67.527344 20.980469 26.757813-105.371094 82.847656c-.667969.527344-1.21875 1.144531-1.652343 1.820312-12.9375 1.625-25.929688 2.816406-38.960938 3.585938l-3.574219-14.191406zm-40.371094 103.886719 2.34375-11.652344 24.476563-19.242188-8.367187 26.785157c-6.132813 1.460937-12.285157 2.839843-18.453126 4.109375zm-16.453124 3.128906.621093-.492188-.078125.394532c-.183594.03125-.363281.066406-.542968.097656zm9.785156-212.507812 33.289062 6.910156-22.015625 106.058594c-.109375.546874-.15625 1.089843-.152343 1.625l-41.695313 32.695312zm-129.40625 77.640624 36.15625 143.589844c-11.351563.378906-22.722656.433594-34.109375.164063-.304688-.007813-.613281-.023438-.917969-.03125l-34.101562-135.421875zm-57.8125 71.851563v-161.003906h34v79.679687l-14.179688 3.570313c-7.273437 1.832031-11.699218 9.234375-9.867187 16.507812l28.039062 111.355469-38.140625-48.636719c.097656-.476562.148438-.96875.148438-1.472656zm-53.179688-176.015625 14.636719 128.515625-30.261719-38.59375c-2.285156-2.910156-5.527344-4.632813-8.933594-5.078125l-9.226562-80.996094zm-26.566406 100.28125 44.65625 56.953125c.558594 1.617187 1.640625 2.964844 3.03125 3.863281l67.203125 85.707032c-15.777344-1.027344-31.484375-2.691407-47.097656-4.964844l-94.546875-120.578125zm15.292969 98.914062 30.613281 39.042969c-6.265625-1.152343-12.515625-2.390625-18.742188-3.746093zm296.347656 264.824219h-49.617187c-3.867188-55.789062-50.480469-100-107.238282-100-30.628906 0-59.894531 13.125-80.285156 36.011719-6.4375 7.222656 4.761719 17.203125 11.199219 9.980469 17.546875-19.695313 42.730469-30.992188 69.085937-30.992188 48.480469 0 88.367188 37.492188 92.195313 85.003907h-184.375c.777343-9.699219 3.027343-19.128907 6.78125-28.113282 3.726562-8.925781-10.117188-14.707031-13.84375-5.777344-4.519531 10.824219-7.195313 22.195313-7.996094 33.890626h-51.695313l-78.925781-247.195313c52.140625 17.859375 103.703125 34.125 158.566407 41.214844 82.945312 10.71875 168.011718 4.175781 248.34375-19.097657 9.292968-2.691406 5.121093-17.085937-4.175782-14.40625-3.496094 1.011719-7 1.988282-10.511718 2.9375l12.132812-38.847656 24.058594-18.914062c2.859375-2.242188 4.675781-5.464844 5.109375-9.070313.4375-3.605469-.558594-7.167969-2.796875-10.023437l-10.367188-13.21875 23.117188-73.996094 32.453125 10.136719-45.265625 144.898437c-1.796875 5.753906 3.546875 11.898438 9.589844 9.828125l33.390624-11.4375zm0 0" data-original="#000000" class="active-path" data-old_color="#000000" fill="#E51919"/></g> </svg>
