<?xml version="1.0"?>
<svg xmlns="http://www.w3.org/2000/svg" height="512px" viewBox="0 0 512 512.00135" width="512px"><g><path d="m386 256c0 5.523438-4.476562 10-10 10s-10-4.476562-10-10c0-5.519531 4.476562-10 10-10s10 4.480469 10 10zm0 0" data-original="#000000" class="active-path" data-old_color="#000000" fill="#E51919"/><path d="m366 216c0 5.523438-4.476562 10-10 10s-10-4.476562-10-10c0-5.519531 4.476562-10 10-10s10 4.480469 10 10zm0 0" data-original="#000000" class="active-path" data-old_color="#000000" fill="#E51919"/><path d="m306 196.003906c0 5.519532-4.476562 9.996094-10 9.996094s-10-4.476562-10-9.996094c0-5.523437 4.476562-10 10-10s10 4.476563 10 10zm0 0" data-original="#000000" class="active-path" data-old_color="#000000" fill="#E51919"/><path d="m306 256c0 5.523438-4.476562 10-10 10s-10-4.476562-10-10c0-5.519531 4.476562-10 10-10s10 4.480469 10 10zm0 0" data-original="#000000" class="active-path" data-old_color="#000000" fill="#E51919"/><path d="m266 156.003906c0 5.519532-4.476562 10-10 10s-10-4.480468-10-10c0-5.523437 4.476562-10 10-10s10 4.476563 10 10zm0 0" data-original="#000000" class="active-path" data-old_color="#000000" fill="#E51919"/><path d="m226 196.003906c0 5.519532-4.476562 9.996094-10 9.996094s-10-4.476562-10-9.996094c0-5.523437 4.476562-10 10-10s10 4.476563 10 10zm0 0" data-original="#000000" class="active-path" data-old_color="#000000" fill="#E51919"/><path d="m226 256c0 5.523438-4.476562 10-10 10s-10-4.476562-10-10c0-5.519531 4.476562-10 10-10s10 4.480469 10 10zm0 0" data-original="#000000" class="active-path" data-old_color="#000000" fill="#E51919"/><path d="m166 216c0 5.523438-4.476562 10-10 10s-10-4.476562-10-10c0-5.519531 4.476562-10 10-10s10 4.480469 10 10zm0 0" data-original="#000000" class="active-path" data-old_color="#000000" fill="#E51919"/><path d="m146 256c0 5.523438-4.476562 10-10 10s-10-4.476562-10-10c0-5.519531 4.476562-10 10-10s10 4.480469 10 10zm0 0" data-original="#000000" class="active-path" data-old_color="#000000" fill="#E51919"/><path d="m502 286h-36c0-25.855469-16.378906-48.339844-40.09375-56.625.0625-1.121094.09375-2.246094.09375-3.375 0-14.96875-5.554688-29.1875-15.441406-40.152344l100.070312-170.789062c2.789063-4.765625 1.191406-10.890625-3.574218-13.683594-4.765626-2.789062-10.890626-1.195312-13.683594 3.570312l-98.65625 168.378907c-3.597656-1.957031-7.382813-3.554688-11.296875-4.746094-2.304688-7.542969-6.105469-14.621094-11.128907-20.730469l78.324219-132.765625c2.804688-4.757812 1.222657-10.886719-3.535156-13.695312-4.757813-2.804688-10.886719-1.222657-13.691406 3.535156l-76.488281 129.652344c-9.261719-5.570313-19.898438-8.574219-30.898438-8.574219-7.53125 0-14.957031 1.410156-21.890625 4.125-11.214844-15.078125-28.902344-24.125-48.109375-24.125-19.210938 0-36.894531 9.046875-48.109375 24.125-6.9375-2.714844-14.363281-4.125-21.890625-4.125-26.71875 0-49.925781 17.589844-57.457031 42.660156-17.523438 5.613282-42.542969 22.449219-42.542969 57.339844 0 1.128906.03125 2.253906.09375 3.375-23.714844 8.285156-40.09375 30.769531-40.09375 56.625h-36c-5.523438 0-10 4.480469-10 10 0 83.453125 64.964844 158.046875 146 173.1875v32.8125c0 5.523438 4.476562 10 10 10h200c5.523438 0 10-4.476562 10-10v-32.820312c82.34375-15.476563 146-91.121094 146-173.179688 0-5.519531-4.476562-10-10-10zm-336 206v-20.320312c3.335938.207031 6.675781.320312 10 .320312 0 0 166.667969-.113281 170-.320312v20.320312zm170-40h-160c-80.320312 0-150.046875-68.421875-155.636719-146h275.636719c5.523438 0 10-4.476562 10-10 0-5.519531-4.476562-10-10-10h-230c0-19.414062 13.84375-35.976562 32.914062-39.375 5.597657-.996094 9.226563-6.449219 8.015626-11.980469-.617188-2.816406-.929688-5.722656-.929688-8.644531 0-12.660156 4.636719-22.828125 13.777344-30.210938 7.144531-5.769531 15.472656-8.484374 18.878906-9.113281 4.074219-.753906 7.261719-3.941406 8.015625-8.015625 3.5-18.921875 20.042969-32.65625 39.328125-32.65625 7.222656 0 14.296875 1.941406 20.453125 5.613282 4.945313 2.957031 11.359375 1.121093 14.003906-3.984376 6.914063-13.34375 20.53125-21.628906 35.542969-21.628906s28.628906 8.285156 35.539062 21.628906c2.652344 5.117188 9.066407 6.933594 14.003907 3.984376 6.15625-3.671876 13.230469-5.613282 20.457031-5.613282 19.347656 0 35.839844 13.847656 39.328125 32.660156.753906 4.070313 3.9375 7.253907 8.007813 8.011719 18.632812 3.457031 32.664062 19.773438 32.664062 39.324219 0 2.921875-.3125 5.828125-.929688 8.644531-1.210937 5.53125 2.417969 10.984375 8.015626 11.980469 19.070312 3.402344 32.914062 19.960938 32.914062 39.375h-70c-5.523438 0-10 4.480469-10 10 0 5.523438 4.476562 9.992188 10 9.992188h115.636719c-5.710938 78.859374-76.261719 146.007812-155.636719 146.007812zm0 0" data-original="#000000" class="active-path" data-old_color="#000000" fill="#E51919"/><path d="m346 296c0 5.523438-4.476562 10-10 10s-10-4.476562-10-10c0-5.519531 4.476562-10 10-10s10 4.480469 10 10zm0 0" data-original="#000000" class="active-path" data-old_color="#000000" fill="#E51919"/></g> </svg>
